PathFileType	3	(X/Y/Z)	D:\minhoCalibration\240510\subject2_KPNP\preferred\preferred05.trc
DataRate	CameraRate	NumFrames	NumMarkers	Units	OrigDataRate	OrigDataStartFrame	OrigNumFrames
200.0	200.0	21	10	mm	200.0	969	244	
Frame#	Time	Left_Ankle_Outer1			Left_Ankle_Inner1			Left_Knee_Outer1			Left_Knee_Inner1			Left_Wrist1			Right_Wrist1			Right_Knee_Inner1			Right_Knee_Outer1			Right_Ankle_Inner1			Right_Ankle_Outer1			
		X1	Y1	Z1	X2	Y2	Z2	X3	Y3	Z3	X4	Y4	Z4	X5	Y5	Z5	X6	Y6	Z6	X7	Y7	Z7	X8	Y8	Z8	X9	Y9	Z9	X10	Y10	Z10	
969	4.835	-560.00879	92.266014	-748.87366	-569.45197	94.376549	-696.07721	-379.7327	507.76755	-752.401	-425.53271	492.62677	-669.64636	-375.21808	984.21606	-804.81927	-643.67163	1051.5598	-601.08429	-574.97516	554.95306	-416.29117	-658.49506	600.74829	-398.40762	-698.54108	249.2189	-671.62274	-793.22791	280.12546	-659.97809
970	4.84	-560.01758	92.164207	-748.6983	-569.50769	94.162094	-696.08539	-379.2442	507.45071	-751.67908	-425.05396	492.41547	-668.58093	-374.72	984.81116	-803.20074	-646.19757	1049.2704	-602.64081	-582.16193	549.82227	-424.93973	-665.99475	595.25177	-408.51456	-701.08862	243.20781	-680.76044	-794.83325	275.0246	-673.46265
971	4.845	-560.06006	92.025887	-748.58899	-569.29517	94.983604	-694.31506	-378.75507	507.20721	-751.04034	-425.28009	492.10767	-668.54523	-374.51276	985.44922	-801.65479	-648.90295	1046.9447	-604.30133	-589.19934	544.91785	-433.68057	-672.30872	588.76715	-421.6687	-702.40601	237.49353	-692.01062	-796.64185	270.13821	-686.53748
972	4.85	-560.0434	91.957443	-748.58228	-569.33777	94.910881	-694.29535	-378.24652	506.98047	-750.34912	-424.8497	491.87466	-667.64618	-374.32208	986.34131	-799.89825	-651.67627	1044.5288	-606.13116	-595.50983	539.84076	-442.04233	-680.4353	584.83508	-429.16412	-703.26611	232.5959	-702.17072	-797.35925	265.75345	-699.90247
973	4.855	-560.05231	91.900742	-748.59473	-569.52545	94.049492	-695.86871	-377.96878	506.74301	-749.60638	-424.86893	491.63226	-667.19641	-374.40512	986.94983	-798.56671	-654.57867	1042.1279	-608.09155	-602.1994	535.25916	-450.85742	-687.33356	579.86346	-439.67325	-705.36749	227.05573	-711.76422	-799.15118	260.6814	-712.47662
974	4.86	-560.04956	91.876244	-748.82758	-569.82062	94.58815	-694.09497	-377.8291	506.45096	-748.81317	-425.04425	491.39493	-667.02734	-374.17007	987.82806	-796.56744	-657.58551	1039.5984	-610.12262	-608.67499	530.98132	-459.79987	-694.02161	575.2085	-450.04318	-707.16266	221.71892	-721.64215	-800.95526	255.73984	-724.52789
975	4.865	-559.98486	91.865173	-748.95868	-569.45172	95.438232	-693.03082	-377.46765	506.37662	-748.12286	-425.14273	491.23257	-666.48511	-374.41302	988.4502	-794.99756	-660.59314	1036.9668	-612.21967	-615.02393	526.86725	-468.69214	-700.31519	570.82465	-460.36102	-707.5354	217.35388	-731.79791	-801.74109	251.33849	-737.29602
976	4.87	-559.87769	91.861084	-749.20563	-569.69257	93.938286	-696.1474	-377.39124	506.23615	-747.31329	-425.42703	490.92816	-666.06433	-374.47522	989.09875	-792.92181	-664.02783	1034.2637	-614.64941	-621.08966	522.9491	-477.67694	-706.75836	566.46136	-471.79303	-710.52478	211.69649	-740.71631	-803.85596	246.64482	-748.12683
977	4.875	-559.68909	91.461273	-749.0025	-569.99188	94.519066	-694.70837	-377.12485	506.28723	-746.51233	-425.60956	490.88211	-665.56812	-374.66742	989.87231	-790.80579	-667.73822	1031.6522	-617.31885	-626.71167	519.27905	-486.83054	-712.79163	562.28271	-482.60437	-711.78906	206.97864	-750.75549	-805.23645	242.16238	-759.51007
978	4.88	-559.67029	91.753967	-749.73901	-569.70868	93.947617	-696.42285	-377.09097	506.40863	-745.55133	-425.97589	490.85574	-665.0235	-374.92526	990.5976	-788.65417	-671.20673	1029.0574	-619.93878	-632.79633	515.98212	-495.80655	-718.50891	558.39581	-493.34119	-713.58618	202.33522	-759.77692	-806.77856	237.64787	-770.63708
979	4.885	-559.57422	91.729645	-749.98242	-569.76642	94.037773	-696.49774	-376.94977	506.4718	-744.6062	-426.43692	490.86816	-664.35828	-375.44571	991.36542	-786.48541	-674.59412	1026.4541	-622.57794	-638.68427	513.06384	-505.58276	-724.06238	554.67682	-504.25146	-716.13849	197.35866	-768.38904	-808.40314	233.22894	-781.43274
980	4.89	-559.46448	91.344971	-749.87744	-570.3092	93.14772	-698.10596	-377.01981	506.42801	-743.56763	-427.01343	490.88141	-663.69965	-376.00735	992.15942	-784.21423	-678.03363	1023.9649	-625.51385	-643.76642	509.80859	-514.71777	-729.28546	551.08673	-515.14655	-718.04968	192.70184	-777.33624	-809.90076	228.82426	-791.67041
981	4.895	-559.40424	91.258148	-750.16547	-570.3277	94.222954	-695.74756	-376.86432	506.53375	-742.46185	-427.6246	490.93231	-663.06622	-376.76431	992.8028	-782.01099	-681.59332	1021.4724	-628.54279	-649.0921	506.98508	-523.74554	-734.29279	547.7901	-525.95844	-719.84607	188.31607	-786.0946	-811.45709	224.41603	-801.86536
982	4.9	-559.38837	91.065918	-750.4704	-570.03235	94.050957	-696.85419	-376.96802	506.57703	-741.24023	-428.28024	490.9545	-662.42389	-377.75262	993.21704	-779.87042	-685.18365	1019.0878	-631.77112	-653.77814	503.96484	-532.83453	-739.44116	544.77045	-535.92828	-721.43219	184.19185	-794.88501	-812.89594	220.08463	-811.62079
983	4.905	-559.38104	90.987633	-750.75916	-570.04114	93.72966	-697.58948	-377.03491	506.62994	-739.98096	-429.0051	491.04004	-661.92499	-378.4425	994.25385	-777.75653	-688.97223	1016.8063	-635.1228	-658.58661	501.67853	-541.86761	-743.61414	541.75665	-547.71228	-723.16064	179.86052	-802.93018	-814.27563	215.61787	-821.05444
984	4.91	-559.44257	91.164734	-751.50922	-570.70648	93.763947	-696.59686	-377.26031	506.52664	-738.66449	-430.49048	491.14227	-660.79803	-380.34476	994.5882	-775.23224	-692.75293	1014.7325	-638.57001	-663.26172	499.49292	-550.4682	-747.97754	539.08923	-558.66083	-724.50061	175.63979	-810.96918	-815.40436	211.25761	-830.27246
985	4.915	-559.49969	90.930458	-751.67749	-570.95685	92.154022	-699.67987	-377.52634	506.51132	-737.20447	-431.67578	491.16913	-659.96454	-380.57941	995.44122	-773.82532	-696.40356	1012.4618	-642.05414	-667.81702	496.55475	-559.60522	-752.10858	536.5661	-569.33069	-725.71375	171.44711	-818.65509	-816.4856	206.66138	-839.0282
986	4.92	-559.62329	90.628975	-751.81982	-571.14508	93.252563	-696.862	-377.7139	506.52618	-735.84045	-432.87955	491.08655	-659.18384	-382.8201	995.61395	-771.30902	-699.91614	1010.1895	-645.62006	-672.18896	494.46249	-568.66455	-756.06458	534.33325	-579.97522	-726.93182	167.18434	-825.78125	-817.23639	202.12845	-847.51019
987	4.925	-559.73248	90.313599	-751.83868	-571.09363	93.955841	-695.26215	-377.97607	506.43271	-734.42346	-434.13919	491.07663	-658.26019	-384.55896	996.06885	-769.31598	-703.65137	1008.0411	-649.28564	-676.44708	492.45978	-578.04926	-759.8252	532.30505	-590.51385	-727.63678	163.11185	-832.75836	-817.97717	197.54803	-855.74481
988	4.93	-559.83875	89.543556	-751.4035	-571.71722	92.630333	-696.99713	-378.16019	506.33459	-733.05847	-435.40063	490.99142	-657.31183	-386.17899	996.45013	-767.48749	-707.37915	1005.9427	-652.98962	-680.44391	490.4046	-587.33337	-763.31989	530.23022	-600.10925	-728.19019	159.29277	-839.52277	-818.4231	192.978	-863.54352
989	4.935	-560.11127	89.165283	-751.341	-571.57275	92.876556	-696.30212	-378.28339	506.21228	-731.63135	-436.72556	490.80618	-656.3634	-387.96191	996.71136	-765.75525	-710.86926	1003.8942	-656.71686	-684.5611	488.06259	-598.65594	-767.3006	528.28247	-610.21967	-728.52692	155.51114	-845.98645	-818.50793	188.18233	-870.96912
